ply
format ascii 1.0
comment VCGLIB generated
element vertex 598
property float x
property float y
property float z
property uchar red
property uchar green
property uchar blue
property uchar alpha
element face 1154
property list uchar int vertex_indices
end_header
0 0.850651 0.525731 192 192 192 255 
0 0.850651 -0.525731 192 192 192 255 
0 -0.850651 0.525731 192 192 192 255 
0 -0.850651 -0.525731 192 192 192 255 
0.850651 0.525731 0 192 192 192 255 
0.850651 -0.525731 0 192 192 192 255 
-0.850651 0.525731 0 192 192 192 255 
-0.850651 -0.525731 0 192 192 192 255 
0.525731 0 0.850651 192 192 192 255 
-0.525731 0 0.850651 192 192 192 255 
-0.525731 0 -0.850651 192 192 192 255 
0 1 0 192 192 192 255 
0.5 0.809017 0.309017 192 192 192 255 
0.5 0.809017 -0.309017 192 192 192 255 
-0.5 0.809017 -0.309017 192 192 192 255 
-0.5 0.809017 0.309017 192 192 192 255 
0 -1 0 192 192 192 255 
0.5 -0.809017 -0.309017 192 192 192 255 
0.5 -0.809017 0.309017 192 192 192 255 
-0.5 -0.809017 0.309017 192 192 192 255 
-0.5 -0.809017 -0.309017 192 192 192 255 
1 0 0 192 192 192 255 
0.809017 -0.309017 -0.5 192 192 192 255 
0.809017 0.309017 -0.5 192 192 192 255 
0.809017 0.309017 0.5 192 192 192 255 
0.809017 -0.309017 0.5 192 192 192 255 
-1 0 0 192 192 192 255 
-0.809017 -0.309017 0.5 192 192 192 255 
-0.809017 0.309017 0.5 192 192 192 255 
-0.809017 0.309017 -0.5 192 192 192 255 
-0.809017 -0.309017 -0.5 192 192 192 255 
-0.309017 -0.5 0.809017 192 192 192 255 
0.309017 -0.5 0.809017 192 192 192 255 
0.309017 0.5 0.809017 192 192 192 255 
-0.309017 0.5 0.809017 192 192 192 255 
-0.309017 0.5 -0.809017 192 192 192 255 
0.309017 0.5 -0.809017 192 192 192 255 
0.309017 -0.5 -0.809017 192 192 192 255 
-0.309017 -0.5 -0.809017 192 192 192 255 
0.262866 0.951057 0.16246 192 192 192 255 
0.525731 0.850651 0 192 192 192 255 
0.262866 0.951057 -0.16246 192 192 192 255 
-0.262866 0.951057 -0.16246 192 192 192 255 
-0.525731 0.850651 0 192 192 192 255 
-0.262866 0.951057 0.16246 192 192 192 255 
0.262866 -0.951057 -0.16246 192 192 192 255 
0.525731 -0.850651 0 192 192 192 255 
0.262866 -0.951057 0.16246 192 192 192 255 
-0.262866 -0.951057 0.16246 192 192 192 255 
-0.525731 -0.850651 0 192 192 192 255 
-0.262866 -0.951057 -0.16246 192 192 192 255 
0.951057 -0.16246 -0.262866 192 192 192 255 
0.850651 0 -0.525731 192 192 192 255 
0.951057 0.16246 -0.262866 192 192 192 255 
0.951057 0.16246 0.262866 192 192 192 255 
0.850651 0 0.525731 192 192 192 255 
0.951057 -0.16246 0.262866 192 192 192 255 
-0.951057 -0.16246 0.262866 192 192 192 255 
-0.850651 0 0.525731 192 192 192 255 
-0.951057 0.16246 0.262866 192 192 192 255 
-0.951057 0.16246 -0.262866 192 192 192 255 
-0.850651 0 -0.525731 192 192 192 255 
-0.951057 -0.16246 -0.262866 192 192 192 255 
-0.16246 -0.262866 0.951057 192 192 192 255 
0 -0.525731 0.850651 192 192 192 255 
0.16246 -0.262866 0.951057 192 192 192 255 
0.16246 0.262866 0.951057 192 192 192 255 
0 0.525731 0.850651 192 192 192 255 
-0.16246 0.262866 0.951057 192 192 192 255 
0 0.525731 -0.850651 192 192 192 255 
0.16246 -0.262866 -0.951057 192 192 192 255 
0 -0.525731 -0.850651 192 192 192 255 
-0.16246 -0.262866 -0.951057 192 192 192 255 
0.587785 0.425325 0.688191 192 192 192 255 
0.688191 0.587785 0.425325 192 192 192 255 
0.425325 0.688191 0.587785 192 192 192 255 
-0.688191 0.587785 0.425325 192 192 192 255 
-0.587785 0.425325 0.688191 192 192 192 255 
-0.425325 0.688191 0.587785 192 192 192 255 
0.688191 0.587785 -0.425325 192 192 192 255 
0.587785 0.425325 -0.688191 192 192 192 255 
0.425325 0.688191 -0.587785 192 192 192 255 
-0.587785 0.425325 -0.688191 192 192 192 255 
-0.688191 0.587785 -0.425325 192 192 192 255 
-0.425325 0.688191 -0.587785 192 192 192 255 
0.688191 -0.587785 0.425325 192 192 192 255 
0.587785 -0.425325 0.688191 192 192 192 255 
0.425325 -0.688191 0.587785 192 192 192 255 
-0.587785 -0.425325 0.688191 192 192 192 255 
-0.688191 -0.587785 0.425325 192 192 192 255 
-0.425325 -0.688191 0.587785 192 192 192 255 
0.587785 -0.425325 -0.688191 192 192 192 255 
0.688191 -0.587785 -0.425325 192 192 192 255 
0.425325 -0.688191 -0.587785 192 192 192 255 
-0.688191 -0.587785 -0.425325 192 192 192 255 
-0.587785 -0.425325 -0.688191 192 192 192 255 
-0.425325 -0.688191 -0.587785 192 192 192 255 
0 0.961938 -0.273267 192 192 192 255 
0.259892 0.862668 -0.433889 192 192 192 255 
0 0.961938 0.273267 192 192 192 255 
0.259892 0.862668 0.433889 192 192 192 255 
0.702046 0.69378 0.160622 192 192 192 255 
0.702046 0.69378 -0.160622 192 192 192 255 
-0.259892 0.862668 0.433889 192 192 192 255 
-0.259892 0.862668 -0.433889 192 192 192 255 
-0.702046 0.69378 -0.160622 192 192 192 255 
-0.702046 0.69378 0.160622 192 192 192 255 
0 -0.961938 0.273267 192 192 192 255 
0.259892 -0.862668 0.433889 192 192 192 255 
0 -0.961938 -0.273267 192 192 192 255 
0.259892 -0.862668 -0.433889 192 192 192 255 
0.702046 -0.69378 -0.160622 192 192 192 255 
0.702046 -0.69378 0.160622 192 192 192 255 
-0.259892 -0.862668 -0.433889 192 192 192 255 
-0.259892 -0.862668 0.433889 192 192 192 255 
-0.702046 -0.69378 0.160622 192 192 192 255 
-0.702046 -0.69378 -0.160622 192 192 192 255 
0.961938 0.273267 0 192 192 192 255 
0.862668 0.433889 -0.259892 192 192 192 255 
0.961938 -0.273267 0 192 192 192 255 
0.862668 -0.433889 -0.259892 192 192 192 255 
0.69378 -0.160622 -0.702046 192 192 192 255 
0.69378 0.160622 -0.702046 192 192 192 255 
0.862668 -0.433889 0.259892 192 192 192 255 
0.862668 0.433889 0.259892 192 192 192 255 
0.69378 0.160622 0.702046 192 192 192 255 
0.69378 -0.160622 0.702046 192 192 192 255 
-0.961938 0.273267 0 192 192 192 255 
-0.862668 0.433889 0.259892 192 192 192 255 
-0.961938 -0.273267 0 192 192 192 255 
-0.862668 -0.433889 0.259892 192 192 192 255 
-0.69378 -0.160622 0.702046 192 192 192 255 
-0.69378 0.160622 0.702046 192 192 192 255 
-0.862668 -0.433889 -0.259892 192 192 192 255 
-0.862668 0.433889 -0.259892 192 192 192 255 
-0.69378 0.160622 -0.702046 192 192 192 255 
-0.69378 -0.160622 -0.702046 192 192 192 255 
0.433889 -0.259892 0.862668 192 192 192 255 
-0.273267 0 0.961938 192 192 192 255 
-0.433889 -0.259892 0.862668 192 192 192 255 
-0.160622 -0.702046 0.69378 192 192 192 255 
0.160622 -0.702046 0.69378 192 192 192 255 
-0.433889 0.259892 0.862668 192 192 192 255 
0.433889 0.259892 0.862668 192 192 192 255 
0.160622 0.702046 0.69378 192 192 192 255 
-0.160622 0.702046 0.69378 192 192 192 255 
-0.433889 0.259892 -0.862668 192 192 192 255 
-0.160622 0.702046 -0.69378 192 192 192 255 
0.160622 0.702046 -0.69378 192 192 192 255 
-0.433889 -0.259892 -0.862668 192 192 192 255 
0.433889 -0.259892 -0.862668 192 192 192 255 
0.160622 -0.702046 -0.69378 192 192 192 255 
-0.160622 -0.702046 -0.69378 192 192 192 255 
0.399607 0.912982 0.082324 192 192 192 255 
0.399607 0.912982 -0.082324 192 192 192 255 
0.266405 0.963861 0 192 192 192 255 
-0.399607 0.912982 -0.082324 192 192 192 255 
-0.399607 0.912982 0.082324 192 192 192 255 
-0.266405 0.963861 0 192 192 192 255 
0.399607 -0.912982 -0.082324 192 192 192 255 
0.399607 -0.912982 0.082324 192 192 192 255 
0.266405 -0.963861 0 192 192 192 255 
-0.399607 -0.912982 0.082324 192 192 192 255 
-0.399607 -0.912982 -0.082324 192 192 192 255 
-0.266405 -0.963861 0 192 192 192 255 
0.912982 -0.082324 -0.399607 192 192 192 255 
0.912982 0.082324 -0.399607 192 192 192 255 
0.963861 0 -0.266405 192 192 192 255 
0.912982 0.082324 0.399607 192 192 192 255 
0.912982 -0.082324 0.399607 192 192 192 255 
0.963861 0 0.266405 192 192 192 255 
-0.912982 -0.082324 0.399607 192 192 192 255 
-0.912982 0.082324 0.399607 192 192 192 255 
-0.963861 0 0.266405 192 192 192 255 
-0.912982 0.082324 -0.399607 192 192 192 255 
-0.912982 -0.082324 -0.399607 192 192 192 255 
-0.963861 0 -0.266405 192 192 192 255 
-0.082324 -0.399607 0.912982 192 192 192 255 
0.082324 -0.399607 0.912982 192 192 192 255 
0 -0.266405 0.963861 192 192 192 255 
0.082324 0.399607 0.912982 192 192 192 255 
-0.082324 0.399607 0.912982 192 192 192 255 
0 0.266405 0.963861 192 192 192 255 
0.082324 -0.399607 -0.912982 192 192 192 255 
-0.082324 -0.399607 -0.912982 192 192 192 255 
0 -0.266405 -0.963861 192 192 192 255 
0.646578 0.513375 0.564254 192 192 192 255 
0.564254 0.646578 0.513375 192 192 192 255 
0.513375 0.564254 0.646578 192 192 192 255 
-0.646578 0.513375 0.564254 192 192 192 255 
-0.513375 0.564254 0.646578 192 192 192 255 
-0.564254 0.646578 0.513375 192 192 192 255 
0.646578 0.513375 -0.564254 192 192 192 255 
0.513375 0.564254 -0.646578 192 192 192 255 
0.564254 0.646578 -0.513375 192 192 192 255 
-0.646578 0.513375 -0.564254 192 192 192 255 
-0.564254 0.646578 -0.513375 192 192 192 255 
-0.513375 0.564254 -0.646578 192 192 192 255 
0.646578 -0.513375 0.564254 192 192 192 255 
0.513375 -0.564254 0.646578 192 192 192 255 
0.564254 -0.646578 0.513375 192 192 192 255 
-0.646578 -0.513375 0.564254 192 192 192 255 
-0.564254 -0.646578 0.513375 192 192 192 255 
-0.513375 -0.564254 0.646578 192 192 192 255 
0.646578 -0.513375 -0.564254 192 192 192 255 
0.564254 -0.646578 -0.513375 192 192 192 255 
0.513375 -0.564254 -0.646578 192 192 192 255 
-0.646578 -0.513375 -0.564254 192 192 192 255 
-0.513375 -0.564254 -0.646578 192 192 192 255 
-0.564254 -0.646578 -0.513375 192 192 192 255 
0.132792 0.966393 -0.220117 192 192 192 255 
0.264083 0.916244 -0.301259 192 192 192 255 
0.131655 0.924305 -0.358229 192 192 192 255 
0.131655 0.924305 0.358229 192 192 192 255 
0.264083 0.916244 0.301259 192 192 192 255 
0.132792 0.966393 0.220117 192 192 192 255 
0.62024 0.780204 0.081142 192 192 192 255 
0.711282 0.702907 0 192 192 192 255 
0.62024 0.780204 -0.081142 192 192 192 255 
-0.132792 0.966393 0.220117 192 192 192 255 
-0.264083 0.916244 0.301259 192 192 192 255 
-0.131655 0.924305 0.358229 192 192 192 255 
-0.131655 0.924305 -0.358229 192 192 192 255 
-0.264083 0.916244 -0.301259 192 192 192 255 
-0.132792 0.966393 -0.220117 192 192 192 255 
-0.62024 0.780204 -0.081142 192 192 192 255 
-0.711282 0.702907 0 192 192 192 255 
-0.62024 0.780204 0.081142 192 192 192 255 
0.132792 -0.966393 0.220117 192 192 192 255 
0.264083 -0.916244 0.301259 192 192 192 255 
0.131655 -0.924305 0.358229 192 192 192 255 
0.131655 -0.924305 -0.358229 192 192 192 255 
0.264083 -0.916244 -0.301259 192 192 192 255 
0.132792 -0.966393 -0.220117 192 192 192 255 
0.62024 -0.780204 -0.081142 192 192 192 255 
0.711282 -0.702907 0 192 192 192 255 
0.62024 -0.780204 0.081142 192 192 192 255 
-0.132792 -0.966393 -0.220117 192 192 192 255 
-0.264083 -0.916244 -0.301259 192 192 192 255 
-0.131655 -0.924305 -0.358229 192 192 192 255 
-0.131655 -0.924305 0.358229 192 192 192 255 
-0.264083 -0.916244 0.301259 192 192 192 255 
-0.132792 -0.966393 0.220117 192 192 192 255 
-0.62024 -0.780204 0.081142 192 192 192 255 
-0.711282 -0.702907 0 192 192 192 255 
-0.62024 -0.780204 -0.081142 192 192 192 255 
0.966393 0.220117 -0.132792 192 192 192 255 
0.916244 0.301259 -0.264083 192 192 192 255 
0.924305 0.358229 -0.131655 192 192 192 255 
0.924305 -0.358229 -0.131655 192 192 192 255 
0.916244 -0.301259 -0.264083 192 192 192 255 
0.966393 -0.220117 -0.132792 192 192 192 255 
0.780204 -0.081142 -0.62024 192 192 192 255 
0.702907 0 -0.711282 192 192 192 255 
0.780204 0.081142 -0.62024 192 192 192 255 
0.966393 -0.220117 0.132792 192 192 192 255 
0.916244 -0.301259 0.264083 192 192 192 255 
0.924305 -0.358229 0.131655 192 192 192 255 
0.924305 0.358229 0.131655 192 192 192 255 
0.916244 0.301259 0.264083 192 192 192 255 
0.966393 0.220117 0.132792 192 192 192 255 
0.780204 0.081142 0.62024 192 192 192 255 
0.702907 0 0.711282 192 192 192 255 
0.780204 -0.081142 0.62024 192 192 192 255 
-0.966393 0.220117 0.132792 192 192 192 255 
-0.916244 0.301259 0.264083 192 192 192 255 
-0.924305 0.358229 0.131655 192 192 192 255 
-0.924305 -0.358229 0.131655 192 192 192 255 
-0.916244 -0.301259 0.264083 192 192 192 255 
-0.966393 -0.220117 0.132792 192 192 192 255 
-0.780204 -0.081142 0.62024 192 192 192 255 
-0.702907 0 0.711282 192 192 192 255 
-0.780204 0.081142 0.62024 192 192 192 255 
-0.966393 -0.220117 -0.132792 192 192 192 255 
-0.916244 -0.301259 -0.264083 192 192 192 255 
-0.924305 -0.358229 -0.131655 192 192 192 255 
-0.924305 0.358229 -0.131655 192 192 192 255 
-0.916244 0.301259 -0.264083 192 192 192 255 
-0.966393 0.220117 -0.132792 192 192 192 255 
-0.780204 0.081142 -0.62024 192 192 192 255 
-0.702907 0 -0.711282 192 192 192 255 
-0.780204 -0.081142 -0.62024 192 192 192 255 
0.301259 -0.264083 0.916244 192 192 192 255 
-0.358229 -0.131655 0.924305 192 192 192 255 
-0.301259 -0.264083 0.916244 192 192 192 255 
-0.220117 -0.132792 0.966393 192 192 192 255 
-0.081142 -0.62024 0.780204 192 192 192 255 
0 -0.711282 0.702907 192 192 192 255 
0.081142 -0.62024 0.780204 192 192 192 255 
-0.220117 0.132792 0.966393 192 192 192 255 
-0.301259 0.264083 0.916244 192 192 192 255 
-0.358229 0.131655 0.924305 192 192 192 255 
0.301259 0.264083 0.916244 192 192 192 255 
0.081142 0.62024 0.780204 192 192 192 255 
0 0.711282 0.702907 192 192 192 255 
-0.081142 0.62024 0.780204 192 192 192 255 
-0.358229 0.131655 -0.924305 192 192 192 255 
-0.301259 0.264083 -0.916244 192 192 192 255 
-0.081142 0.62024 -0.780204 192 192 192 255 
0 0.711282 -0.702907 192 192 192 255 
0.081142 0.62024 -0.780204 192 192 192 255 
-0.301259 -0.264083 -0.916244 192 192 192 255 
-0.358229 -0.131655 -0.924305 192 192 192 255 
0.301259 -0.264083 -0.916244 192 192 192 255 
0.081142 -0.62024 -0.780204 192 192 192 255 
0 -0.711282 -0.702907 192 192 192 255 
-0.081142 -0.62024 -0.780204 192 192 192 255 
0.296005 0.70231 0.647412 192 192 192 255 
0.346153 0.783452 0.516122 192 192 192 255 
0.213023 0.792649 0.571252 192 192 192 255 
0.571252 0.213023 0.792649 192 192 192 255 
0.647412 0.296005 0.70231 192 192 192 255 
0.516122 0.346153 0.783452 192 192 192 255 
0.783452 0.516122 0.346153 192 192 192 255 
0.792649 0.571252 0.213023 192 192 192 255 
0.70231 0.647412 0.296005 192 192 192 255 
-0.346153 0.783452 0.516122 192 192 192 255 
-0.296005 0.70231 0.647412 192 192 192 255 
-0.213023 0.792649 0.571252 192 192 192 255 
-0.792649 0.571252 0.213023 192 192 192 255 
-0.783452 0.516122 0.346153 192 192 192 255 
-0.70231 0.647412 0.296005 192 192 192 255 
-0.647412 0.296005 0.70231 192 192 192 255 
-0.571252 0.213023 0.792649 192 192 192 255 
-0.516122 0.346153 0.783452 192 192 192 255 
0.346153 0.783452 -0.516122 192 192 192 255 
0.296005 0.70231 -0.647412 192 192 192 255 
0.213023 0.792649 -0.571252 192 192 192 255 
0.792649 0.571252 -0.213023 192 192 192 255 
0.783452 0.516122 -0.346153 192 192 192 255 
0.70231 0.647412 -0.296005 192 192 192 255 
0.647412 0.296005 -0.70231 192 192 192 255 
-0.296005 0.70231 -0.647412 192 192 192 255 
-0.346153 0.783452 -0.516122 192 192 192 255 
-0.213023 0.792649 -0.571252 192 192 192 255 
-0.571252 0.213023 -0.792649 192 192 192 255 
-0.647412 0.296005 -0.70231 192 192 192 255 
-0.516122 0.346153 -0.783452 192 192 192 255 
-0.783452 0.516122 -0.346153 192 192 192 255 
-0.792649 0.571252 -0.213023 192 192 192 255 
-0.70231 0.647412 -0.296005 192 192 192 255 
0.346153 -0.783452 0.516122 192 192 192 255 
0.296005 -0.70231 0.647412 192 192 192 255 
0.213023 -0.792649 0.571252 192 192 192 255 
0.792649 -0.571252 0.213023 192 192 192 255 
0.783452 -0.516122 0.346153 192 192 192 255 
0.70231 -0.647412 0.296005 192 192 192 255 
0.647412 -0.296005 0.70231 192 192 192 255 
0.571252 -0.213023 0.792649 192 192 192 255 
0.516122 -0.346153 0.783452 192 192 192 255 
-0.296005 -0.70231 0.647412 192 192 192 255 
-0.346153 -0.783452 0.516122 192 192 192 255 
-0.213023 -0.792649 0.571252 192 192 192 255 
-0.571252 -0.213023 0.792649 192 192 192 255 
-0.647412 -0.296005 0.70231 192 192 192 255 
-0.516122 -0.346153 0.783452 192 192 192 255 
-0.783452 -0.516122 0.346153 192 192 192 255 
-0.792649 -0.571252 0.213023 192 192 192 255 
-0.70231 -0.647412 0.296005 192 192 192 255 
0.296005 -0.70231 -0.647412 192 192 192 255 
0.346153 -0.783452 -0.516122 192 192 192 255 
0.213023 -0.792649 -0.571252 192 192 192 255 
0.647412 -0.296005 -0.70231 192 192 192 255 
0.516122 -0.346153 -0.783452 192 192 192 255 
0.783452 -0.516122 -0.346153 192 192 192 255 
0.792649 -0.571252 -0.213023 192 192 192 255 
0.70231 -0.647412 -0.296005 192 192 192 255 
-0.346153 -0.783452 -0.516122 192 192 192 255 
-0.296005 -0.70231 -0.647412 192 192 192 255 
-0.213023 -0.792649 -0.571252 192 192 192 255 
-0.792649 -0.571252 -0.213023 192 192 192 255 
-0.783452 -0.516122 -0.346153 192 192 192 255 
-0.70231 -0.647412 -0.296005 192 192 192 255 
-0.647412 -0.296005 -0.70231 192 192 192 255 
-0.571252 -0.213023 -0.792649 192 192 192 255 
-0.516122 -0.346153 -0.783452 192 192 192 255 
0.133071 0.987688 0.082242 192 192 192 255 
0.133071 0.987688 -0.082242 192 192 192 255 
0.386187 0.891007 0.238677 192 192 192 255 
0.519258 0.840178 0.156434 192 192 192 255 
0.519258 0.840178 -0.156434 192 192 192 255 
0.386187 0.891007 -0.238677 192 192 192 255 
-0.133071 0.987688 -0.082242 192 192 192 255 
-0.133071 0.987688 0.082242 192 192 192 255 
-0.386187 0.891007 -0.238677 192 192 192 255 
-0.519258 0.840178 -0.156434 192 192 192 255 
-0.519258 0.840178 0.156434 192 192 192 255 
-0.386187 0.891007 0.238677 192 192 192 255 
0.133071 -0.987688 -0.082242 192 192 192 255 
0.133071 -0.987688 0.082242 192 192 192 255 
0.386187 -0.891007 -0.238677 192 192 192 255 
0.519258 -0.840178 -0.156434 192 192 192 255 
0.519258 -0.840178 0.156434 192 192 192 255 
0.386187 -0.891007 0.238677 192 192 192 255 
-0.133071 -0.987688 0.082242 192 192 192 255 
-0.133071 -0.987688 -0.082242 192 192 192 255 
-0.386187 -0.891007 0.238677 192 192 192 255 
-0.519258 -0.840178 0.156434 192 192 192 255 
-0.519258 -0.840178 -0.156434 192 192 192 255 
-0.386187 -0.891007 -0.238677 192 192 192 255 
0.987688 -0.082242 -0.133071 192 192 192 255 
0.987688 0.082242 -0.133071 192 192 192 255 
0.891007 -0.238677 -0.386187 192 192 192 255 
0.840178 -0.156434 -0.519258 192 192 192 255 
0.840178 0.156434 -0.519258 192 192 192 255 
0.891007 0.238677 -0.386187 192 192 192 255 
0.987688 0.082242 0.133071 192 192 192 255 
0.987688 -0.082242 0.133071 192 192 192 255 
0.891007 0.238677 0.386187 192 192 192 255 
0.840178 0.156434 0.519258 192 192 192 255 
0.840178 -0.156434 0.519258 192 192 192 255 
0.891007 -0.238677 0.386187 192 192 192 255 
-0.987688 -0.082242 0.133071 192 192 192 255 
-0.987688 0.082242 0.133071 192 192 192 255 
-0.891007 -0.238677 0.386187 192 192 192 255 
-0.840178 -0.156434 0.519258 192 192 192 255 
-0.840178 0.156434 0.519258 192 192 192 255 
-0.891007 0.238677 0.386187 192 192 192 255 
-0.987688 0.082242 -0.133071 192 192 192 255 
-0.987688 -0.082242 -0.133071 192 192 192 255 
-0.891007 0.238677 -0.386187 192 192 192 255 
-0.840178 0.156434 -0.519258 192 192 192 255 
-0.840178 -0.156434 -0.519258 192 192 192 255 
-0.891007 -0.238677 -0.386187 192 192 192 255 
-0.238677 -0.386187 0.891007 192 192 192 255 
-0.156434 -0.519258 0.840178 192 192 192 255 
0.156434 -0.519258 0.840178 192 192 192 255 
0.238677 -0.386187 0.891007 192 192 192 255 
0.238677 0.386187 0.891007 192 192 192 255 
0.156434 0.519258 0.840178 192 192 192 255 
-0.156434 0.519258 0.840178 192 192 192 255 
-0.238677 0.386187 0.891007 192 192 192 255 
-0.156434 0.519258 -0.840178 192 192 192 255 
0.156434 0.519258 -0.840178 192 192 192 255 
0.238677 -0.386187 -0.891007 192 192 192 255 
0.156434 -0.519258 -0.840178 192 192 192 255 
-0.156434 -0.519258 -0.840178 192 192 192 255 
-0.238677 -0.386187 -0.891007 192 192 192 255 
0.453991 0.46843 0.757935 192 192 192 255 
0.371748 0.601501 0.707107 192 192 192 255 
0.707107 0.371748 0.601501 192 192 192 255 
0.757935 0.453991 0.46843 192 192 192 255 
0.601501 0.707107 0.371748 192 192 192 255 
0.46843 0.757935 0.453991 192 192 192 255 
-0.601501 0.707107 0.371748 192 192 192 255 
-0.46843 0.757935 0.453991 192 192 192 255 
-0.757935 0.453991 0.46843 192 192 192 255 
-0.707107 0.371748 0.601501 192 192 192 255 
-0.453991 0.46843 0.757935 192 192 192 255 
-0.371748 0.601501 0.707107 192 192 192 255 
0.601501 0.707107 -0.371748 192 192 192 255 
0.46843 0.757935 -0.453991 192 192 192 255 
0.757935 0.453991 -0.46843 192 192 192 255 
0.707107 0.371748 -0.601501 192 192 192 255 
0.453991 0.46843 -0.757935 192 192 192 255 
0.371748 0.601501 -0.707107 192 192 192 255 
-0.453991 0.46843 -0.757935 192 192 192 255 
-0.371748 0.601501 -0.707107 192 192 192 255 
-0.707107 0.371748 -0.601501 192 192 192 255 
-0.757935 0.453991 -0.46843 192 192 192 255 
-0.601501 0.707107 -0.371748 192 192 192 255 
-0.46843 0.757935 -0.453991 192 192 192 255 
0.601501 -0.707107 0.371748 192 192 192 255 
0.46843 -0.757935 0.453991 192 192 192 255 
0.757935 -0.453991 0.46843 192 192 192 255 
0.707107 -0.371748 0.601501 192 192 192 255 
0.453991 -0.46843 0.757935 192 192 192 255 
0.371748 -0.601501 0.707107 192 192 192 255 
-0.453991 -0.46843 0.757935 192 192 192 255 
-0.371748 -0.601501 0.707107 192 192 192 255 
-0.707107 -0.371748 0.601501 192 192 192 255 
-0.757935 -0.453991 0.46843 192 192 192 255 
-0.601501 -0.707107 0.371748 192 192 192 255 
-0.46843 -0.757935 0.453991 192 192 192 255 
0.453991 -0.46843 -0.757935 192 192 192 255 
0.371748 -0.601501 -0.707107 192 192 192 255 
0.707107 -0.371748 -0.601501 192 192 192 255 
0.757935 -0.453991 -0.46843 192 192 192 255 
0.601501 -0.707107 -0.371748 192 192 192 255 
0.46843 -0.757935 -0.453991 192 192 192 255 
-0.601501 -0.707107 -0.371748 192 192 192 255 
-0.46843 -0.757935 -0.453991 192 192 192 255 
-0.757935 -0.453991 -0.46843 192 192 192 255 
-0.707107 -0.371748 -0.601501 192 192 192 255 
-0.453991 -0.46843 -0.757935 192 192 192 255 
-0.371748 -0.601501 -0.707107 192 192 192 255 
0 0.915043 -0.403355 192 192 192 255 
0.1312 0.864929 -0.484442 192 192 192 255 
0 0.990439 -0.137952 192 192 192 255 
0.383614 0.843911 -0.375039 192 192 192 255 
0 0.990439 0.137952 192 192 192 255 
0 0.915043 0.403355 192 192 192 255 
0.1312 0.864929 0.484442 192 192 192 255 
0.383614 0.843911 0.375039 192 192 192 255 
0.606825 0.758652 -0.237086 192 192 192 255 
0.606825 0.758652 0.237086 192 192 192 255 
0.783843 0.615642 0.081086 192 192 192 255 
0.783843 0.615642 -0.081086 192 192 192 255 
-0.1312 0.864929 0.484442 192 192 192 255 
-0.383614 0.843911 0.375039 192 192 192 255 
-0.1312 0.864929 -0.484442 192 192 192 255 
-0.383614 0.843911 -0.375039 192 192 192 255 
-0.606825 0.758652 0.237086 192 192 192 255 
-0.606825 0.758652 -0.237086 192 192 192 255 
-0.783843 0.615642 -0.081086 192 192 192 255 
-0.783843 0.615642 0.081086 192 192 192 255 
0 -0.915043 0.403355 192 192 192 255 
0.1312 -0.864929 0.484442 192 192 192 255 
0 -0.990439 0.137952 192 192 192 255 
0.383614 -0.843911 0.375039 192 192 192 255 
0 -0.990439 -0.137952 192 192 192 255 
0 -0.915043 -0.403355 192 192 192 255 
0.1312 -0.864929 -0.484442 192 192 192 255 
0.383614 -0.843911 -0.375039 192 192 192 255 
0.606825 -0.758652 0.237086 192 192 192 255 
0.606825 -0.758652 -0.237086 192 192 192 255 
0.783843 -0.615642 -0.081086 192 192 192 255 
0.783843 -0.615642 0.081086 192 192 192 255 
-0.1312 -0.864929 -0.484442 192 192 192 255 
-0.383614 -0.843911 -0.375039 192 192 192 255 
-0.1312 -0.864929 0.484442 192 192 192 255 
-0.383614 -0.843911 0.375039 192 192 192 255 
-0.606825 -0.758652 -0.237086 192 192 192 255 
-0.606825 -0.758652 0.237086 192 192 192 255 
-0.783843 -0.615642 0.081086 192 192 192 255 
-0.783843 -0.615642 -0.081086 192 192 192 255 
0.915043 0.403355 0 192 192 192 255 
0.864929 0.484442 -0.1312 192 192 192 255 
0.990439 0.137952 0 192 192 192 255 
0.843911 0.375039 -0.383614 192 192 192 255 
0.990439 -0.137952 0 192 192 192 255 
0.915043 -0.403355 0 192 192 192 255 
0.864929 -0.484442 -0.1312 192 192 192 255 
0.843911 -0.375039 -0.383614 192 192 192 255 
0.758652 0.237086 -0.606825 192 192 192 255 
0.758652 -0.237086 -0.606825 192 192 192 255 
0.615642 -0.081086 -0.783843 192 192 192 255 
0.615642 0.081086 -0.783843 192 192 192 255 
0.864929 -0.484442 0.1312 192 192 192 255 
0.843911 -0.375039 0.383614 192 192 192 255 
0.864929 0.484442 0.1312 192 192 192 255 
0.843911 0.375039 0.383614 192 192 192 255 
0.758652 -0.237086 0.606825 192 192 192 255 
0.758652 0.237086 0.606825 192 192 192 255 
0.615642 0.081086 0.783843 192 192 192 255 
0.615642 -0.081086 0.783843 192 192 192 255 
-0.915043 0.403355 0 192 192 192 255 
-0.864929 0.484442 0.1312 192 192 192 255 
-0.990439 0.137952 0 192 192 192 255 
-0.843911 0.375039 0.383614 192 192 192 255 
-0.990439 -0.137952 0 192 192 192 255 
-0.915043 -0.403355 0 192 192 192 255 
-0.864929 -0.484442 0.1312 192 192 192 255 
-0.843911 -0.375039 0.383614 192 192 192 255 
-0.758652 0.237086 0.606825 192 192 192 255 
-0.758652 -0.237086 0.606825 192 192 192 255 
-0.615642 -0.081086 0.783843 192 192 192 255 
-0.615642 0.081086 0.783843 192 192 192 255 
-0.864929 -0.484442 -0.1312 192 192 192 255 
-0.843911 -0.375039 -0.383614 192 192 192 255 
-0.864929 0.484442 -0.1312 192 192 192 255 
-0.843911 0.375039 -0.383614 192 192 192 255 
-0.758652 -0.237086 -0.606825 192 192 192 255 
-0.758652 0.237086 -0.606825 192 192 192 255 
-0.615642 0.081086 -0.783843 192 192 192 255 
-0.615642 -0.081086 -0.783843 192 192 192 255 
0.403355 0 0.915043 192 192 192 255 
0.484442 -0.1312 0.864929 192 192 192 255 
0.375039 -0.383614 0.843911 192 192 192 255 
-0.403355 0 0.915043 192 192 192 255 
-0.484442 -0.1312 0.864929 192 192 192 255 
-0.375039 -0.383614 0.843911 192 192 192 255 
0.237086 -0.606825 0.758652 192 192 192 255 
-0.237086 -0.606825 0.758652 192 192 192 255 
-0.081086 -0.783843 0.615642 192 192 192 255 
0.081086 -0.783843 0.615642 192 192 192 255 
-0.484442 0.1312 0.864929 192 192 192 255 
-0.375039 0.383614 0.843911 192 192 192 255 
0.484442 0.1312 0.864929 192 192 192 255 
0.375039 0.383614 0.843911 192 192 192 255 
-0.237086 0.606825 0.758652 192 192 192 255 
0.237086 0.606825 0.758652 192 192 192 255 
0.081086 0.783843 0.615642 192 192 192 255 
-0.081086 0.783843 0.615642 192 192 192 255 
-0.403355 0 -0.915043 192 192 192 255 
-0.484442 0.1312 -0.864929 192 192 192 255 
-0.375039 0.383614 -0.843911 192 192 192 255 
0.237086 0.606825 -0.758652 192 192 192 255 
-0.237086 0.606825 -0.758652 192 192 192 255 
-0.081086 0.783843 -0.615642 192 192 192 255 
0.081086 0.783843 -0.615642 192 192 192 255 
-0.484442 -0.1312 -0.864929 192 192 192 255 
-0.375039 -0.383614 -0.843911 192 192 192 255 
0.375039 -0.383614 -0.843911 192 192 192 255 
-0.237086 -0.606825 -0.758652 192 192 192 255 
0.237086 -0.606825 -0.758652 192 192 192 255 
0.081086 -0.783843 -0.615642 192 192 192 255 
-0.081086 -0.783843 -0.615642 192 192 192 255 
3 153 154 155 
3 156 157 158 
3 159 160 161 
3 162 163 164 
3 165 166 167 
3 168 169 170 
3 171 172 173 
3 174 175 176 
3 177 178 179 
3 180 181 182 
3 183 184 185 
3 186 187 188 
3 189 190 191 
3 192 193 194 
3 195 196 197 
3 198 199 200 
3 201 202 203 
3 204 205 206 
3 207 208 209 
3 210 211 212 
3 213 214 215 
3 216 217 218 
3 219 220 221 
3 222 223 224 
3 225 226 227 
3 228 229 230 
3 231 232 233 
3 234 235 236 
3 237 238 239 
3 240 241 242 
3 243 244 245 
3 246 247 248 
3 249 250 251 
3 252 253 254 
3 255 256 257 
3 258 259 260 
3 261 262 263 
3 264 265 266 
3 267 268 269 
3 270 271 272 
3 273 274 275 
3 276 277 278 
3 279 280 281 
3 283 284 285 
3 286 287 288 
3 289 290 291 
3 293 294 295 
3 298 299 300 
3 304 305 306 
3 307 308 309 
3 310 311 312 
3 313 314 315 
3 316 317 318 
3 319 320 321 
3 322 323 324 
3 325 326 327 
3 328 329 330 
3 332 333 334 
3 335 336 337 
3 338 339 340 
3 341 342 343 
3 344 345 346 
3 347 348 349 
3 350 351 352 
3 353 354 355 
3 356 357 358 
3 359 360 361 
3 364 365 366 
3 367 368 369 
3 370 371 372 
3 373 374 375 
3 376 155 377 
3 378 379 153 
3 154 380 381 
3 382 158 383 
3 384 385 156 
3 157 386 387 
3 388 161 389 
3 390 391 159 
3 160 392 393 
3 394 164 395 
3 396 397 162 
3 163 398 399 
3 400 167 401 
3 402 403 165 
3 166 404 405 
3 406 170 407 
3 408 409 168 
3 169 410 411 
3 412 173 413 
3 414 415 171 
3 172 416 417 
3 418 176 419 
3 420 421 174 
3 175 422 423 
3 424 425 177 
3 178 426 427 
3 428 429 180 
3 181 430 431 
3 434 435 183 
3 184 436 437 
3 438 188 439 
3 440 441 186 
3 187 442 443 
3 444 191 445 
3 446 447 189 
3 190 448 449 
3 450 194 451 
3 452 453 192 
3 193 454 455 
3 456 197 457 
3 458 459 195 
3 196 460 461 
3 462 200 463 
3 464 465 198 
3 199 466 467 
3 468 203 469 
3 470 471 201 
3 202 472 473 
3 474 206 475 
3 476 477 204 
3 205 478 479 
3 480 209 481 
3 482 483 207 
3 208 484 485 
3 486 212 487 
3 488 377 210 
3 211 381 489 
3 490 215 376 
3 491 492 213 
3 214 493 378 
3 380 218 494 
3 379 495 216 
3 217 496 497 
3 491 221 498 
3 490 383 219 
3 220 387 499 
3 488 224 382 
3 486 500 222 
3 223 501 384 
3 386 227 502 
3 385 503 225 
3 226 504 505 
3 506 230 507 
3 508 389 228 
3 229 393 509 
3 510 233 388 
3 511 512 231 
3 232 513 390 
3 392 236 514 
3 391 515 234 
3 235 516 517 
3 511 239 518 
3 510 395 237 
3 238 399 519 
3 508 242 394 
3 506 520 240 
3 241 521 396 
3 398 245 522 
3 397 523 243 
3 244 524 525 
3 526 248 527 
3 528 401 246 
3 247 405 529 
3 530 251 400 
3 531 532 249 
3 250 533 402 
3 404 254 534 
3 403 535 252 
3 253 536 537 
3 531 257 538 
3 530 407 255 
3 256 411 539 
3 528 260 406 
3 526 540 258 
3 259 541 408 
3 410 263 542 
3 409 543 261 
3 262 544 545 
3 546 266 547 
3 548 413 264 
3 265 417 549 
3 550 269 412 
3 551 552 267 
3 268 553 414 
3 416 272 554 
3 415 555 270 
3 271 556 557 
3 551 275 558 
3 550 419 273 
3 274 423 559 
3 548 278 418 
3 546 560 276 
3 277 561 420 
3 422 281 562 
3 421 563 279 
3 280 564 565 
3 282 427 568 
3 569 570 283 
3 284 571 424 
3 426 288 572 
3 425 573 286 
3 287 574 575 
3 569 291 576 
3 290 431 577 
3 292 579 428 
3 430 295 580 
3 429 581 293 
3 294 582 583 
3 584 585 296 
3 433 300 587 
3 432 588 298 
3 299 589 590 
3 584 302 591 
3 301 437 592 
3 303 593 434 
3 436 306 594 
3 435 595 304 
3 305 596 597 
3 582 309 492 
3 581 439 307 
3 308 443 493 
3 579 312 438 
3 578 544 310 
3 311 543 440 
3 442 315 495 
3 441 541 313 
3 314 540 496 
3 498 318 583 
3 499 445 316 
3 317 449 580 
3 502 321 444 
3 505 547 319 
3 320 549 446 
3 448 324 577 
3 447 554 322 
3 323 557 576 
3 487 327 590 
3 489 451 325 
3 326 455 587 
3 494 330 450 
3 497 527 328 
3 329 529 452 
3 453 534 331 
3 589 334 500 
3 588 457 332 
3 333 461 501 
3 586 337 456 
3 585 564 335 
3 336 563 458 
3 460 340 503 
3 459 561 338 
3 339 560 504 
3 507 343 575 
3 509 463 341 
3 342 467 572 
3 514 346 462 
3 517 538 344 
3 345 539 464 
3 466 349 568 
3 465 542 347 
3 348 545 567 
3 574 352 520 
3 573 469 350 
3 351 473 521 
3 571 355 468 
3 570 556 353 
3 354 555 470 
3 472 358 523 
3 471 553 356 
3 357 552 524 
3 596 361 512 
3 595 475 359 
3 360 479 513 
3 593 363 474 
3 362 535 476 
3 478 366 515 
3 477 533 364 
3 365 532 516 
3 518 369 597 
3 519 481 367 
3 368 485 594 
3 522 372 480 
3 525 558 370 
3 371 559 482 
3 484 375 592 
3 483 562 373 
3 374 565 591 
3 39 153 155 
3 153 40 154 
3 155 154 41 
3 42 156 158 
3 156 43 157 
3 158 157 44 
3 45 159 161 
3 159 46 160 
3 161 160 47 
3 48 162 164 
3 162 49 163 
3 164 163 50 
3 51 165 167 
3 165 52 166 
3 167 166 53 
3 54 168 170 
3 168 55 169 
3 170 169 56 
3 57 171 173 
3 171 58 172 
3 173 172 59 
3 60 174 176 
3 174 61 175 
3 176 175 62 
3 63 177 179 
3 177 64 178 
3 179 178 65 
3 66 180 182 
3 180 67 181 
3 182 181 68 
3 70 183 185 
3 183 71 184 
3 185 184 72 
3 73 186 188 
3 186 74 187 
3 188 187 75 
3 76 189 191 
3 189 77 190 
3 191 190 78 
3 79 192 194 
3 192 80 193 
3 194 193 81 
3 82 195 197 
3 195 83 196 
3 197 196 84 
3 85 198 200 
3 198 86 199 
3 200 199 87 
3 88 201 203 
3 201 89 202 
3 203 202 90 
3 91 204 206 
3 204 92 205 
3 206 205 93 
3 94 207 209 
3 207 95 208 
3 209 208 96 
3 97 210 212 
3 210 41 211 
3 212 211 98 
3 99 213 215 
3 213 100 214 
3 215 214 39 
3 40 216 218 
3 216 101 217 
3 218 217 102 
3 99 219 221 
3 219 44 220 
3 221 220 103 
3 97 222 224 
3 222 104 223 
3 224 223 42 
3 43 225 227 
3 225 105 226 
3 227 226 106 
3 107 228 230 
3 228 47 229 
3 230 229 108 
3 109 231 233 
3 231 110 232 
3 233 232 45 
3 46 234 236 
3 234 111 235 
3 236 235 112 
3 109 237 239 
3 237 50 238 
3 239 238 113 
3 107 240 242 
3 240 114 241 
3 242 241 48 
3 49 243 245 
3 243 115 244 
3 245 244 116 
3 117 246 248 
3 246 53 247 
3 248 247 118 
3 119 249 251 
3 249 120 250 
3 251 250 51 
3 52 252 254 
3 252 121 253 
3 254 253 122 
3 119 255 257 
3 255 56 256 
3 257 256 123 
3 117 258 260 
3 258 124 259 
3 260 259 54 
3 55 261 263 
3 261 125 262 
3 263 262 126 
3 127 264 266 
3 264 59 265 
3 266 265 128 
3 129 267 269 
3 267 130 268 
3 269 268 57 
3 58 270 272 
3 270 131 271 
3 272 271 132 
3 129 273 275 
3 273 62 274 
3 275 274 133 
3 127 276 278 
3 276 134 277 
3 278 277 60 
3 61 279 281 
3 279 135 280 
3 281 280 136 
3 138 283 285 
3 283 139 284 
3 285 284 63 
3 64 286 288 
3 286 140 287 
3 288 287 141 
3 138 289 291 
3 289 68 290 
3 291 290 142 
3 67 293 295 
3 293 144 294 
3 295 294 145 
3 296 146 297 
3 69 298 300 
3 298 147 299 
3 300 299 148 
3 302 301 149 
3 71 304 306 
3 304 151 305 
3 306 305 152 
3 144 307 309 
3 307 75 308 
3 309 308 100 
3 143 310 312 
3 310 125 311 
3 312 311 73 
3 74 313 315 
3 313 124 314 
3 315 314 101 
3 103 316 318 
3 316 78 317 
3 318 317 145 
3 106 319 321 
3 319 128 320 
3 321 320 76 
3 77 322 324 
3 322 132 323 
3 324 323 142 
3 98 325 327 
3 325 81 326 
3 327 326 148 
3 102 328 330 
3 328 118 329 
3 330 329 79 
3 147 332 334 
3 332 84 333 
3 334 333 104 
3 146 335 337 
3 335 135 336 
3 337 336 82 
3 83 338 340 
3 338 134 339 
3 340 339 105 
3 108 341 343 
3 341 87 342 
3 343 342 141 
3 112 344 346 
3 344 123 345 
3 346 345 85 
3 86 347 349 
3 347 126 348 
3 349 348 137 
3 140 350 352 
3 350 90 351 
3 352 351 114 
3 139 353 355 
3 353 131 354 
3 355 354 88 
3 89 356 358 
3 356 130 357 
3 358 357 115 
3 151 359 361 
3 359 93 360 
3 361 360 110 
3 363 362 91 
3 92 364 366 
3 364 120 365 
3 366 365 111 
3 113 367 369 
3 367 96 368 
3 369 368 152 
3 116 370 372 
3 370 133 371 
3 372 371 94 
3 95 373 375 
3 373 136 374 
3 375 374 149 
3 11 376 377 
3 376 39 155 
3 377 155 41 
3 39 378 153 
3 378 12 379 
3 153 379 40 
3 41 154 381 
3 154 40 380 
3 381 380 13 
3 11 382 383 
3 382 42 158 
3 383 158 44 
3 42 384 156 
3 384 14 385 
3 156 385 43 
3 44 157 387 
3 157 43 386 
3 387 386 15 
3 16 388 389 
3 388 45 161 
3 389 161 47 
3 45 390 159 
3 390 17 391 
3 159 391 46 
3 47 160 393 
3 160 46 392 
3 393 392 18 
3 16 394 395 
3 394 48 164 
3 395 164 50 
3 48 396 162 
3 396 19 397 
3 162 397 49 
3 50 163 399 
3 163 49 398 
3 399 398 20 
3 21 400 401 
3 400 51 167 
3 401 167 53 
3 51 402 165 
3 402 22 403 
3 165 403 52 
3 53 166 405 
3 166 52 404 
3 405 404 23 
3 21 406 407 
3 406 54 170 
3 407 170 56 
3 54 408 168 
3 408 24 409 
3 168 409 55 
3 56 169 411 
3 169 55 410 
3 411 410 25 
3 26 412 413 
3 412 57 173 
3 413 173 59 
3 57 414 171 
3 414 27 415 
3 171 415 58 
3 59 172 417 
3 172 58 416 
3 417 416 28 
3 26 418 419 
3 418 60 176 
3 419 176 62 
3 60 420 174 
3 420 29 421 
3 174 421 61 
3 62 175 423 
3 175 61 422 
3 423 422 30 
3 63 424 177 
3 424 31 425 
3 177 425 64 
3 65 178 427 
3 178 64 426 
3 427 426 32 
3 66 428 180 
3 428 33 429 
3 180 429 67 
3 68 181 431 
3 181 67 430 
3 431 430 34 
3 70 434 183 
3 434 37 435 
3 183 435 71 
3 72 184 437 
3 184 71 436 
3 437 436 38 
3 33 438 439 
3 438 73 188 
3 439 188 75 
3 73 440 186 
3 440 24 441 
3 186 441 74 
3 75 187 443 
3 187 74 442 
3 443 442 12 
3 15 444 445 
3 444 76 191 
3 445 191 78 
3 76 446 189 
3 446 28 447 
3 189 447 77 
3 78 190 449 
3 190 77 448 
3 449 448 34 
3 13 450 451 
3 450 79 194 
3 451 194 81 
3 79 452 192 
3 452 23 453 
3 192 453 80 
3 81 193 455 
3 193 80 454 
3 455 454 36 
3 35 456 457 
3 456 82 197 
3 457 197 84 
3 82 458 195 
3 458 29 459 
3 195 459 83 
3 84 196 461 
3 196 83 460 
3 461 460 14 
3 18 462 463 
3 462 85 200 
3 463 200 87 
3 85 464 198 
3 464 25 465 
3 198 465 86 
3 87 199 467 
3 199 86 466 
3 467 466 32 
3 31 468 469 
3 468 88 203 
3 469 203 90 
3 88 470 201 
3 470 27 471 
3 201 471 89 
3 90 202 473 
3 202 89 472 
3 473 472 19 
3 37 474 475 
3 474 91 206 
3 475 206 93 
3 91 476 204 
3 476 22 477 
3 204 477 92 
3 93 205 479 
3 205 92 478 
3 479 478 17 
3 20 480 481 
3 480 94 209 
3 481 209 96 
3 94 482 207 
3 482 30 483 
3 207 483 95 
3 96 208 485 
3 208 95 484 
3 485 484 38 
3 1 486 487 
3 486 97 212 
3 487 212 98 
3 97 488 210 
3 488 11 377 
3 210 377 41 
3 98 211 489 
3 211 41 381 
3 489 381 13 
3 11 490 376 
3 490 99 215 
3 376 215 39 
3 99 491 213 
3 491 0 492 
3 213 492 100 
3 39 214 378 
3 214 100 493 
3 378 493 12 
3 13 380 494 
3 380 40 218 
3 494 218 102 
3 40 379 216 
3 379 12 495 
3 216 495 101 
3 102 217 497 
3 217 101 496 
3 497 496 4 
3 0 491 498 
3 491 99 221 
3 498 221 103 
3 99 490 219 
3 490 11 383 
3 219 383 44 
3 103 220 499 
3 220 44 387 
3 499 387 15 
3 11 488 382 
3 488 97 224 
3 382 224 42 
3 97 486 222 
3 486 1 500 
3 222 500 104 
3 42 223 384 
3 223 104 501 
3 384 501 14 
3 15 386 502 
3 386 43 227 
3 502 227 106 
3 43 385 225 
3 385 14 503 
3 225 503 105 
3 106 226 505 
3 226 105 504 
3 505 504 6 
3 2 506 507 
3 506 107 230 
3 507 230 108 
3 107 508 228 
3 508 16 389 
3 228 389 47 
3 108 229 509 
3 229 47 393 
3 509 393 18 
3 16 510 388 
3 510 109 233 
3 388 233 45 
3 109 511 231 
3 511 3 512 
3 231 512 110 
3 45 232 390 
3 232 110 513 
3 390 513 17 
3 18 392 514 
3 392 46 236 
3 514 236 112 
3 46 391 234 
3 391 17 515 
3 234 515 111 
3 112 235 517 
3 235 111 516 
3 517 516 5 
3 3 511 518 
3 511 109 239 
3 518 239 113 
3 109 510 237 
3 510 16 395 
3 237 395 50 
3 113 238 519 
3 238 50 399 
3 519 399 20 
3 16 508 394 
3 508 107 242 
3 394 242 48 
3 107 506 240 
3 506 2 520 
3 240 520 114 
3 48 241 396 
3 241 114 521 
3 396 521 19 
3 20 398 522 
3 398 49 245 
3 522 245 116 
3 49 397 243 
3 397 19 523 
3 243 523 115 
3 116 244 525 
3 244 115 524 
3 525 524 7 
3 4 526 527 
3 526 117 248 
3 527 248 118 
3 117 528 246 
3 528 21 401 
3 246 401 53 
3 118 247 529 
3 247 53 405 
3 529 405 23 
3 21 530 400 
3 530 119 251 
3 400 251 51 
3 119 531 249 
3 531 5 532 
3 249 532 120 
3 51 250 402 
3 250 120 533 
3 402 533 22 
3 23 404 534 
3 404 52 254 
3 534 254 122 
3 52 403 252 
3 403 22 535 
3 252 535 121 
3 122 253 537 
3 253 121 536 
3 5 531 538 
3 531 119 257 
3 538 257 123 
3 119 530 255 
3 530 21 407 
3 255 407 56 
3 123 256 539 
3 256 56 411 
3 539 411 25 
3 21 528 406 
3 528 117 260 
3 406 260 54 
3 117 526 258 
3 526 4 540 
3 258 540 124 
3 54 259 408 
3 259 124 541 
3 408 541 24 
3 25 410 542 
3 410 55 263 
3 542 263 126 
3 55 409 261 
3 409 24 543 
3 261 543 125 
3 126 262 545 
3 262 125 544 
3 545 544 8 
3 6 546 547 
3 546 127 266 
3 547 266 128 
3 127 548 264 
3 548 26 413 
3 264 413 59 
3 128 265 549 
3 265 59 417 
3 549 417 28 
3 26 550 412 
3 550 129 269 
3 412 269 57 
3 129 551 267 
3 551 7 552 
3 267 552 130 
3 57 268 414 
3 268 130 553 
3 414 553 27 
3 28 416 554 
3 416 58 272 
3 554 272 132 
3 58 415 270 
3 415 27 555 
3 270 555 131 
3 132 271 557 
3 271 131 556 
3 557 556 9 
3 7 551 558 
3 551 129 275 
3 558 275 133 
3 129 550 273 
3 550 26 419 
3 273 419 62 
3 133 274 559 
3 274 62 423 
3 559 423 30 
3 26 548 418 
3 548 127 278 
3 418 278 60 
3 127 546 276 
3 546 6 560 
3 276 560 134 
3 60 277 420 
3 277 134 561 
3 420 561 29 
3 30 422 562 
3 422 61 281 
3 562 281 136 
3 61 421 279 
3 421 29 563 
3 279 563 135 
3 136 280 565 
3 280 135 564 
3 565 564 10 
3 8 566 567 
3 137 282 568 
3 282 65 427 
3 568 427 32 
3 138 569 283 
3 569 9 570 
3 283 570 139 
3 63 284 424 
3 284 139 571 
3 424 571 31 
3 32 426 572 
3 426 64 288 
3 572 288 141 
3 64 425 286 
3 425 31 573 
3 286 573 140 
3 141 287 575 
3 287 140 574 
3 575 574 2 
3 9 569 576 
3 569 138 291 
3 576 291 142 
3 142 290 577 
3 290 68 431 
3 577 431 34 
3 566 8 578 
3 66 292 428 
3 292 143 579 
3 428 579 33 
3 34 430 580 
3 430 67 295 
3 580 295 145 
3 67 429 293 
3 429 33 581 
3 293 581 144 
3 145 294 583 
3 294 144 582 
3 583 582 0 
3 584 10 585 
3 296 585 146 
3 297 146 586 
3 36 433 587 
3 433 69 300 
3 587 300 148 
3 69 432 298 
3 432 35 588 
3 298 588 147 
3 148 299 590 
3 299 147 589 
3 590 589 1 
3 10 584 591 
3 591 302 149 
3 149 301 592 
3 301 72 437 
3 592 437 38 
3 70 303 434 
3 303 150 593 
3 434 593 37 
3 38 436 594 
3 436 71 306 
3 594 306 152 
3 71 435 304 
3 435 37 595 
3 304 595 151 
3 152 305 597 
3 305 151 596 
3 597 596 3 
3 0 582 492 
3 582 144 309 
3 492 309 100 
3 144 581 307 
3 581 33 439 
3 307 439 75 
3 100 308 493 
3 308 75 443 
3 493 443 12 
3 33 579 438 
3 579 143 312 
3 438 312 73 
3 143 578 310 
3 578 8 544 
3 310 544 125 
3 73 311 440 
3 311 125 543 
3 440 543 24 
3 12 442 495 
3 442 74 315 
3 495 315 101 
3 74 441 313 
3 441 24 541 
3 313 541 124 
3 101 314 496 
3 314 124 540 
3 496 540 4 
3 0 498 583 
3 498 103 318 
3 583 318 145 
3 103 499 316 
3 499 15 445 
3 316 445 78 
3 145 317 580 
3 317 78 449 
3 580 449 34 
3 15 502 444 
3 502 106 321 
3 444 321 76 
3 106 505 319 
3 505 6 547 
3 319 547 128 
3 76 320 446 
3 320 128 549 
3 446 549 28 
3 34 448 577 
3 448 77 324 
3 577 324 142 
3 77 447 322 
3 447 28 554 
3 322 554 132 
3 142 323 576 
3 323 132 557 
3 576 557 9 
3 1 487 590 
3 487 98 327 
3 590 327 148 
3 98 489 325 
3 489 13 451 
3 325 451 81 
3 148 326 587 
3 326 81 455 
3 587 455 36 
3 13 494 450 
3 494 102 330 
3 450 330 79 
3 102 497 328 
3 497 4 527 
3 328 527 118 
3 79 329 452 
3 329 118 529 
3 452 529 23 
3 453 23 534 
3 331 534 122 
3 1 589 500 
3 589 147 334 
3 500 334 104 
3 147 588 332 
3 588 35 457 
3 332 457 84 
3 104 333 501 
3 333 84 461 
3 501 461 14 
3 35 586 456 
3 586 146 337 
3 456 337 82 
3 146 585 335 
3 585 10 564 
3 335 564 135 
3 82 336 458 
3 336 135 563 
3 458 563 29 
3 14 460 503 
3 460 83 340 
3 503 340 105 
3 83 459 338 
3 459 29 561 
3 338 561 134 
3 105 339 504 
3 339 134 560 
3 504 560 6 
3 2 507 575 
3 507 108 343 
3 575 343 141 
3 108 509 341 
3 509 18 463 
3 341 463 87 
3 141 342 572 
3 342 87 467 
3 572 467 32 
3 18 514 462 
3 514 112 346 
3 462 346 85 
3 112 517 344 
3 517 5 538 
3 344 538 123 
3 85 345 464 
3 345 123 539 
3 464 539 25 
3 32 466 568 
3 466 86 349 
3 568 349 137 
3 86 465 347 
3 465 25 542 
3 347 542 126 
3 137 348 567 
3 348 126 545 
3 567 545 8 
3 2 574 520 
3 574 140 352 
3 520 352 114 
3 140 573 350 
3 573 31 469 
3 350 469 90 
3 114 351 521 
3 351 90 473 
3 521 473 19 
3 31 571 468 
3 571 139 355 
3 468 355 88 
3 139 570 353 
3 570 9 556 
3 353 556 131 
3 88 354 470 
3 354 131 555 
3 470 555 27 
3 19 472 523 
3 472 89 358 
3 523 358 115 
3 89 471 356 
3 471 27 553 
3 356 553 130 
3 115 357 524 
3 357 130 552 
3 524 552 7 
3 3 596 512 
3 596 151 361 
3 512 361 110 
3 151 595 359 
3 595 37 475 
3 359 475 93 
3 110 360 513 
3 360 93 479 
3 513 479 17 
3 37 593 474 
3 593 150 363 
3 474 363 91 
3 91 362 476 
3 362 121 535 
3 476 535 22 
3 17 478 515 
3 478 92 366 
3 515 366 111 
3 92 477 364 
3 477 22 533 
3 364 533 120 
3 111 365 516 
3 365 120 532 
3 516 532 5 
3 3 518 597 
3 518 113 369 
3 597 369 152 
3 113 519 367 
3 519 20 481 
3 367 481 96 
3 152 368 594 
3 368 96 485 
3 594 485 38 
3 20 522 480 
3 522 116 372 
3 480 372 94 
3 116 525 370 
3 525 7 558 
3 370 558 133 
3 94 371 482 
3 371 133 559 
3 482 559 30 
3 38 484 592 
3 484 95 375 
3 592 375 149 
3 95 483 373 
3 483 30 562 
3 373 562 136 
3 149 374 591 
3 374 136 565 
3 591 565 10 
